<mxfile host="app.diagrams.net" agent="Mozilla/5.0 (Windows NT 10.0; Win64; x64) AppleWebKit/537.36 (KHTML, like Gecko) Chrome/138.0.0.0 Safari/537.36" version="28.1.0">
  <diagram name="หน้า-1" id="7ZZkY_2BA6_iaLIwGmVf">
    <mxGraphModel dx="2977" dy="1754" grid="1" gridSize="10" guides="1" tooltips="1" connect="1" arrows="1" fold="1" page="1" pageScale="1" pageWidth="827" pageHeight="1169" math="0" shadow="1">
      <root>
        <mxCell id="0" />
        <mxCell id="1" parent="0" />
        <mxCell id="qD41CssBn5ZO2IdtqPFg-21" value="" style="edgeStyle=none;curved=1;rounded=0;orthogonalLoop=1;jettySize=auto;html=1;fontSize=12;startSize=8;endSize=8;entryX=0.5;entryY=0;entryDx=0;entryDy=0;" edge="1" parent="1" source="QrV30BwfFD1UE00L9ssL-2" target="lcvjllNkN0c5qHok56tw-1">
          <mxGeometry relative="1" as="geometry" />
        </mxCell>
        <mxCell id="QrV30BwfFD1UE00L9ssL-2" value="Start" style="ellipse;whiteSpace=wrap;html=1;" parent="1" vertex="1">
          <mxGeometry x="290" y="80" width="166" height="90" as="geometry" />
        </mxCell>
        <mxCell id="qD41CssBn5ZO2IdtqPFg-26" value="" style="edgeStyle=none;curved=1;rounded=0;orthogonalLoop=1;jettySize=auto;html=1;fontSize=12;startSize=8;endSize=8;" edge="1" parent="1" source="QrV30BwfFD1UE00L9ssL-3" target="QrV30BwfFD1UE00L9ssL-11">
          <mxGeometry relative="1" as="geometry" />
        </mxCell>
        <mxCell id="QrV30BwfFD1UE00L9ssL-3" value="&lt;div&gt;&lt;span style=&quot;color: rgb(31, 35, 40); font-family: -apple-system, BlinkMacSystemFont, &amp;quot;Segoe UI&amp;quot;, &amp;quot;Noto Sans&amp;quot;, Helvetica, Arial, sans-serif, &amp;quot;Apple Color Emoji&amp;quot;, &amp;quot;Segoe UI Emoji&amp;quot;; font-size: 16px; text-align: left; background-color: rgb(255, 255, 255);&quot;&gt;คะแนน&lt;/span&gt;&lt;span style=&quot;background-color: rgb(255, 255, 255); color: rgb(31, 35, 40); font-family: -apple-system, BlinkMacSystemFont, &amp;quot;Segoe UI&amp;quot;, &amp;quot;Noto Sans&amp;quot;, Helvetica, Arial, sans-serif, &amp;quot;Apple Color Emoji&amp;quot;, &amp;quot;Segoe UI Emoji&amp;quot;; font-size: 16px; text-align: left;&quot;&gt;ผู้เล่น&lt;/span&gt;&lt;/div&gt;Score = 100&lt;div&gt;ค่าสูงสุด,ต่ำสุด&lt;/div&gt;&lt;div&gt;min = 1&lt;/div&gt;&lt;div&gt;max = 100&lt;/div&gt;" style="rounded=0;whiteSpace=wrap;html=1;" parent="1" vertex="1">
          <mxGeometry x="288.04" y="630" width="170" height="90" as="geometry" />
        </mxCell>
        <mxCell id="qD41CssBn5ZO2IdtqPFg-28" value="" style="edgeStyle=none;curved=1;rounded=0;orthogonalLoop=1;jettySize=auto;html=1;fontSize=12;startSize=8;endSize=8;" edge="1" parent="1" source="QrV30BwfFD1UE00L9ssL-5" target="qD41CssBn5ZO2IdtqPFg-3">
          <mxGeometry relative="1" as="geometry" />
        </mxCell>
        <mxCell id="QrV30BwfFD1UE00L9ssL-5" value="random&lt;span style=&quot;background-color: transparent; color: light-dark(rgb(0, 0, 0), rgb(255, 255, 255));&quot;&gt;(1-100)&lt;/span&gt;" style="rounded=0;whiteSpace=wrap;html=1;" parent="1" vertex="1">
          <mxGeometry x="313" y="860" width="120" height="60" as="geometry" />
        </mxCell>
        <mxCell id="qD41CssBn5ZO2IdtqPFg-25" value="" style="edgeStyle=none;curved=1;rounded=0;orthogonalLoop=1;jettySize=auto;html=1;fontSize=12;startSize=8;endSize=8;" edge="1" parent="1" source="QrV30BwfFD1UE00L9ssL-9" target="QrV30BwfFD1UE00L9ssL-3">
          <mxGeometry relative="1" as="geometry" />
        </mxCell>
        <mxCell id="qD41CssBn5ZO2IdtqPFg-62" value="" style="edgeStyle=none;curved=0;rounded=0;orthogonalLoop=1;jettySize=auto;html=1;fontSize=12;startSize=8;endSize=8;entryX=0.5;entryY=0;entryDx=0;entryDy=0;" edge="1" parent="1" source="QrV30BwfFD1UE00L9ssL-9" target="6xoY5r_IMkIgJnPlj40s-8">
          <mxGeometry relative="1" as="geometry">
            <mxPoint x="606" y="545" as="targetPoint" />
            <Array as="points">
              <mxPoint x="850" y="545" />
            </Array>
          </mxGeometry>
        </mxCell>
        <mxCell id="QrV30BwfFD1UE00L9ssL-9" value="want_play = 1?" style="rhombus;whiteSpace=wrap;html=1;direction=south;" parent="1" vertex="1">
          <mxGeometry x="316.5" y="490" width="113" height="110" as="geometry" />
        </mxCell>
        <mxCell id="qD41CssBn5ZO2IdtqPFg-27" value="" style="edgeStyle=none;curved=1;rounded=0;orthogonalLoop=1;jettySize=auto;html=1;fontSize=12;startSize=8;endSize=8;entryX=0.5;entryY=0;entryDx=0;entryDy=0;" edge="1" parent="1" source="QrV30BwfFD1UE00L9ssL-11" target="QrV30BwfFD1UE00L9ssL-5">
          <mxGeometry relative="1" as="geometry" />
        </mxCell>
        <mxCell id="QrV30BwfFD1UE00L9ssL-11" value="Show&lt;div&gt;(Score=100)&lt;/div&gt;" style="shape=parallelogram;perimeter=parallelogramPerimeter;whiteSpace=wrap;html=1;fixedSize=1;" parent="1" vertex="1">
          <mxGeometry x="295.5" y="760" width="155" height="60" as="geometry" />
        </mxCell>
        <mxCell id="qD41CssBn5ZO2IdtqPFg-32" value="" style="edgeStyle=none;curved=1;rounded=0;orthogonalLoop=1;jettySize=auto;html=1;fontSize=12;startSize=8;endSize=8;" edge="1" parent="1" source="QrV30BwfFD1UE00L9ssL-12" target="qD41CssBn5ZO2IdtqPFg-1">
          <mxGeometry relative="1" as="geometry" />
        </mxCell>
        <mxCell id="QrV30BwfFD1UE00L9ssL-12" value="&lt;div&gt;&lt;span style=&quot;background-color: transparent; color: light-dark(rgb(0, 0, 0), rgb(255, 255, 255));&quot;&gt;Input&quot;number_guess&quot;&lt;/span&gt;&lt;/div&gt;" style="shape=parallelogram;perimeter=parallelogramPerimeter;whiteSpace=wrap;html=1;fixedSize=1;" parent="1" vertex="1">
          <mxGeometry x="276.54" y="1210" width="193" height="60" as="geometry" />
        </mxCell>
        <mxCell id="qD41CssBn5ZO2IdtqPFg-31" value="" style="edgeStyle=none;curved=1;rounded=0;orthogonalLoop=1;jettySize=auto;html=1;fontSize=12;startSize=8;endSize=8;" edge="1" parent="1" source="QrV30BwfFD1UE00L9ssL-13" target="QrV30BwfFD1UE00L9ssL-12">
          <mxGeometry relative="1" as="geometry" />
        </mxCell>
        <mxCell id="QrV30BwfFD1UE00L9ssL-13" value="&lt;div&gt;Show&lt;/div&gt;Guess the winning number (min , max)&amp;nbsp;" style="shape=parallelogram;perimeter=parallelogramPerimeter;whiteSpace=wrap;html=1;fixedSize=1;" parent="1" vertex="1">
          <mxGeometry x="248.03999999999994" y="1109" width="250" height="60" as="geometry" />
        </mxCell>
        <mxCell id="6xoY5r_IMkIgJnPlj40s-5" value="" style="edgeStyle=orthogonalEdgeStyle;rounded=0;orthogonalLoop=1;jettySize=auto;html=1;entryX=0;entryY=0.5;entryDx=0;entryDy=0;" parent="1" source="QrV30BwfFD1UE00L9ssL-14" edge="1" target="qD41CssBn5ZO2IdtqPFg-15">
          <mxGeometry relative="1" as="geometry">
            <mxPoint x="330" y="1100" as="targetPoint" />
            <Array as="points">
              <mxPoint x="150" y="2530" />
              <mxPoint x="150" y="1070" />
            </Array>
          </mxGeometry>
        </mxCell>
        <mxCell id="qD41CssBn5ZO2IdtqPFg-71" value="" style="edgeStyle=none;curved=1;rounded=0;orthogonalLoop=1;jettySize=auto;html=1;fontSize=12;startSize=8;endSize=8;" edge="1" parent="1" source="QrV30BwfFD1UE00L9ssL-14" target="qD41CssBn5ZO2IdtqPFg-70">
          <mxGeometry relative="1" as="geometry" />
        </mxCell>
        <mxCell id="QrV30BwfFD1UE00L9ssL-14" value="NumberGuess&amp;nbsp;&lt;span style=&quot;color: rgb(0, 29, 53); font-family: Arial, sans-serif; font-size: 18px; text-align: start; background-color: rgb(255, 255, 255);&quot;&gt;≠&lt;/span&gt;&amp;nbsp;NumberRandom?" style="rhombus;whiteSpace=wrap;html=1;" parent="1" vertex="1">
          <mxGeometry x="248.04000000000008" y="2450" width="240" height="160" as="geometry" />
        </mxCell>
        <mxCell id="qD41CssBn5ZO2IdtqPFg-23" value="" style="edgeStyle=none;curved=1;rounded=0;orthogonalLoop=1;jettySize=auto;html=1;fontSize=12;startSize=8;endSize=8;" edge="1" parent="1" source="QrV30BwfFD1UE00L9ssL-17" target="QrV30BwfFD1UE00L9ssL-18">
          <mxGeometry relative="1" as="geometry" />
        </mxCell>
        <mxCell id="QrV30BwfFD1UE00L9ssL-17" value="&lt;div&gt;Show&lt;/div&gt;Do you want to play game (1=play , -1=exit)&amp;nbsp;" style="shape=parallelogram;perimeter=parallelogramPerimeter;whiteSpace=wrap;html=1;fixedSize=1;" parent="1" vertex="1">
          <mxGeometry x="229.04" y="290" width="288" height="60" as="geometry" />
        </mxCell>
        <mxCell id="qD41CssBn5ZO2IdtqPFg-77" value="" style="edgeStyle=none;curved=1;rounded=0;orthogonalLoop=1;jettySize=auto;html=1;fontSize=12;startSize=8;endSize=8;" edge="1" parent="1" source="QrV30BwfFD1UE00L9ssL-18" target="QrV30BwfFD1UE00L9ssL-9">
          <mxGeometry relative="1" as="geometry" />
        </mxCell>
        <mxCell id="QrV30BwfFD1UE00L9ssL-18" value="Input&quot;want_play&quot;" style="shape=parallelogram;perimeter=parallelogramPerimeter;whiteSpace=wrap;html=1;fixedSize=1;" parent="1" vertex="1">
          <mxGeometry x="313" y="380" width="120" height="70" as="geometry" />
        </mxCell>
        <mxCell id="6xoY5r_IMkIgJnPlj40s-12" value="See you again." style="shape=parallelogram;perimeter=parallelogramPerimeter;whiteSpace=wrap;html=1;fixedSize=1;" parent="1" vertex="1">
          <mxGeometry x="903.96" y="760" width="140" height="60" as="geometry" />
        </mxCell>
        <mxCell id="6xoY5r_IMkIgJnPlj40s-15" value="" style="edgeStyle=orthogonalEdgeStyle;rounded=0;orthogonalLoop=1;jettySize=auto;html=1;" parent="1" source="6xoY5r_IMkIgJnPlj40s-8" target="6xoY5r_IMkIgJnPlj40s-9" edge="1">
          <mxGeometry relative="1" as="geometry" />
        </mxCell>
        <mxCell id="6xoY5r_IMkIgJnPlj40s-19" value="" style="edgeStyle=orthogonalEdgeStyle;rounded=0;orthogonalLoop=1;jettySize=auto;html=1;entryX=0.5;entryY=0;entryDx=0;entryDy=0;" parent="1" source="6xoY5r_IMkIgJnPlj40s-8" target="6xoY5r_IMkIgJnPlj40s-12" edge="1">
          <mxGeometry relative="1" as="geometry">
            <mxPoint x="1037" y="655" as="targetPoint" />
          </mxGeometry>
        </mxCell>
        <mxCell id="6xoY5r_IMkIgJnPlj40s-8" value="want_play = -1?" style="rhombus;whiteSpace=wrap;html=1;" parent="1" vertex="1">
          <mxGeometry x="796.5000000000001" y="610" width="107" height="90" as="geometry" />
        </mxCell>
        <mxCell id="qD41CssBn5ZO2IdtqPFg-65" value="" style="edgeStyle=none;curved=0;rounded=0;orthogonalLoop=1;jettySize=auto;html=1;fontSize=12;startSize=8;endSize=8;entryX=0;entryY=0.5;entryDx=0;entryDy=0;" edge="1" parent="1" source="6xoY5r_IMkIgJnPlj40s-9" target="qD41CssBn5ZO2IdtqPFg-63">
          <mxGeometry relative="1" as="geometry">
            <mxPoint x="695" y="960" as="targetPoint" />
            <Array as="points">
              <mxPoint x="695" y="1000" />
            </Array>
          </mxGeometry>
        </mxCell>
        <mxCell id="6xoY5r_IMkIgJnPlj40s-9" value="Please enter only 1 or -1." style="shape=parallelogram;perimeter=parallelogramPerimeter;whiteSpace=wrap;html=1;fixedSize=1;" parent="1" vertex="1">
          <mxGeometry x="600" y="750" width="190" height="60" as="geometry" />
        </mxCell>
        <mxCell id="qD41CssBn5ZO2IdtqPFg-73" value="" style="edgeStyle=none;curved=1;rounded=0;orthogonalLoop=1;jettySize=auto;html=1;fontSize=12;startSize=8;endSize=8;" edge="1" parent="1" source="6xoY5r_IMkIgJnPlj40s-20" target="6xoY5r_IMkIgJnPlj40s-22">
          <mxGeometry relative="1" as="geometry" />
        </mxCell>
        <mxCell id="6xoY5r_IMkIgJnPlj40s-20" value="Exit ?" style="rhombus;whiteSpace=wrap;html=1;" parent="1" vertex="1">
          <mxGeometry x="330.08000000000015" y="2690" width="80" height="80" as="geometry" />
        </mxCell>
        <mxCell id="qD41CssBn5ZO2IdtqPFg-67" value="" style="edgeStyle=none;curved=0;rounded=0;orthogonalLoop=1;jettySize=auto;html=1;fontSize=12;startSize=8;endSize=8;entryX=1;entryY=0.5;entryDx=0;entryDy=0;" edge="1" parent="1" source="6xoY5r_IMkIgJnPlj40s-21" target="qD41CssBn5ZO2IdtqPFg-63">
          <mxGeometry relative="1" as="geometry">
            <mxPoint x="970" y="1050" as="targetPoint" />
            <Array as="points">
              <mxPoint x="970" y="1000" />
            </Array>
          </mxGeometry>
        </mxCell>
        <mxCell id="6xoY5r_IMkIgJnPlj40s-21" value="Exit = False" style="shape=parallelogram;perimeter=parallelogramPerimeter;whiteSpace=wrap;html=1;fixedSize=1;" parent="1" vertex="1">
          <mxGeometry x="910" y="840" width="120" height="60" as="geometry" />
        </mxCell>
        <mxCell id="6xoY5r_IMkIgJnPlj40s-22" value="Stop" style="ellipse;whiteSpace=wrap;html=1;" parent="1" vertex="1">
          <mxGeometry x="286.54000000000013" y="2820" width="166" height="90" as="geometry" />
        </mxCell>
        <mxCell id="qD41CssBn5ZO2IdtqPFg-22" value="" style="edgeStyle=none;curved=1;rounded=0;orthogonalLoop=1;jettySize=auto;html=1;fontSize=12;startSize=8;endSize=8;entryX=0.5;entryY=0;entryDx=0;entryDy=0;" edge="1" parent="1" source="lcvjllNkN0c5qHok56tw-1" target="QrV30BwfFD1UE00L9ssL-17">
          <mxGeometry relative="1" as="geometry" />
        </mxCell>
        <mxCell id="lcvjllNkN0c5qHok56tw-1" value="" style="ellipse;whiteSpace=wrap;html=1;aspect=fixed;" parent="1" vertex="1">
          <mxGeometry x="363.04" y="220" width="20" height="20" as="geometry" />
        </mxCell>
        <mxCell id="qD41CssBn5ZO2IdtqPFg-33" value="" style="edgeStyle=none;curved=1;rounded=0;orthogonalLoop=1;jettySize=auto;html=1;fontSize=12;startSize=8;endSize=8;" edge="1" parent="1" source="qD41CssBn5ZO2IdtqPFg-1" target="qD41CssBn5ZO2IdtqPFg-4">
          <mxGeometry relative="1" as="geometry" />
        </mxCell>
        <mxCell id="qD41CssBn5ZO2IdtqPFg-41" value="" style="edgeStyle=none;curved=0;rounded=0;orthogonalLoop=1;jettySize=auto;html=1;fontSize=12;startSize=8;endSize=8;entryX=0.5;entryY=0;entryDx=0;entryDy=0;" edge="1" parent="1" source="qD41CssBn5ZO2IdtqPFg-1" target="qD41CssBn5ZO2IdtqPFg-8">
          <mxGeometry relative="1" as="geometry">
            <mxPoint x="706.54" y="1410" as="targetPoint" />
            <Array as="points">
              <mxPoint x="780" y="1410" />
            </Array>
          </mxGeometry>
        </mxCell>
        <mxCell id="qD41CssBn5ZO2IdtqPFg-1" value="number_guess &amp;lt; random_number" style="rhombus;whiteSpace=wrap;html=1;" vertex="1" parent="1">
          <mxGeometry x="266.29" y="1320" width="213.5" height="180" as="geometry" />
        </mxCell>
        <mxCell id="qD41CssBn5ZO2IdtqPFg-29" value="" style="edgeStyle=none;curved=1;rounded=0;orthogonalLoop=1;jettySize=auto;html=1;fontSize=12;startSize=8;endSize=8;entryX=0.5;entryY=0;entryDx=0;entryDy=0;" edge="1" parent="1" source="qD41CssBn5ZO2IdtqPFg-3" target="qD41CssBn5ZO2IdtqPFg-15">
          <mxGeometry relative="1" as="geometry" />
        </mxCell>
        <mxCell id="qD41CssBn5ZO2IdtqPFg-3" value="Input&lt;div&gt;random_number&lt;/div&gt;" style="shape=parallelogram;perimeter=parallelogramPerimeter;whiteSpace=wrap;html=1;fixedSize=1;" vertex="1" parent="1">
          <mxGeometry x="295.5" y="960" width="155" height="60" as="geometry" />
        </mxCell>
        <mxCell id="qD41CssBn5ZO2IdtqPFg-34" value="" style="edgeStyle=none;curved=1;rounded=0;orthogonalLoop=1;jettySize=auto;html=1;fontSize=12;startSize=8;endSize=8;" edge="1" parent="1" source="qD41CssBn5ZO2IdtqPFg-4" target="qD41CssBn5ZO2IdtqPFg-5">
          <mxGeometry relative="1" as="geometry" />
        </mxCell>
        <mxCell id="qD41CssBn5ZO2IdtqPFg-4" value="Score -10" style="rounded=0;whiteSpace=wrap;html=1;" vertex="1" parent="1">
          <mxGeometry x="313.04" y="1530" width="120" height="60" as="geometry" />
        </mxCell>
        <mxCell id="qD41CssBn5ZO2IdtqPFg-35" value="" style="edgeStyle=none;curved=1;rounded=0;orthogonalLoop=1;jettySize=auto;html=1;fontSize=12;startSize=8;endSize=8;" edge="1" parent="1" source="qD41CssBn5ZO2IdtqPFg-5" target="qD41CssBn5ZO2IdtqPFg-6">
          <mxGeometry relative="1" as="geometry" />
        </mxCell>
        <mxCell id="qD41CssBn5ZO2IdtqPFg-5" value="&lt;div&gt;Show&lt;/div&gt;Sorry, the winning number is HIGHER than (number_guess) ,(Score&amp;nbsp;)" style="shape=parallelogram;perimeter=parallelogramPerimeter;whiteSpace=wrap;html=1;fixedSize=1;" vertex="1" parent="1">
          <mxGeometry x="237.04" y="1630" width="272" height="70" as="geometry" />
        </mxCell>
        <mxCell id="qD41CssBn5ZO2IdtqPFg-36" value="" style="edgeStyle=none;curved=1;rounded=0;orthogonalLoop=1;jettySize=auto;html=1;fontSize=12;startSize=8;endSize=8;" edge="1" parent="1" source="qD41CssBn5ZO2IdtqPFg-6" target="qD41CssBn5ZO2IdtqPFg-7">
          <mxGeometry relative="1" as="geometry" />
        </mxCell>
        <mxCell id="qD41CssBn5ZO2IdtqPFg-91" value="" style="edgeStyle=none;curved=0;rounded=0;orthogonalLoop=1;jettySize=auto;html=1;fontSize=12;startSize=8;endSize=8;entryX=0;entryY=0;entryDx=0;entryDy=0;" edge="1" parent="1" source="qD41CssBn5ZO2IdtqPFg-6" target="qD41CssBn5ZO2IdtqPFg-16">
          <mxGeometry relative="1" as="geometry">
            <mxPoint x="706.5" y="1830" as="targetPoint" />
            <Array as="points">
              <mxPoint x="530" y="1830" />
              <mxPoint x="530" y="2210" />
              <mxPoint x="710" y="2210" />
              <mxPoint x="740" y="2190" />
            </Array>
          </mxGeometry>
        </mxCell>
        <mxCell id="qD41CssBn5ZO2IdtqPFg-6" value="number_guess =&amp;gt; min" style="rhombus;whiteSpace=wrap;html=1;" vertex="1" parent="1">
          <mxGeometry x="266.25" y="1740" width="213.5" height="180" as="geometry" />
        </mxCell>
        <mxCell id="qD41CssBn5ZO2IdtqPFg-53" value="" style="edgeStyle=none;curved=0;rounded=0;orthogonalLoop=1;jettySize=auto;html=1;fontSize=12;startSize=8;endSize=8;entryX=0;entryY=1;entryDx=0;entryDy=0;" edge="1" parent="1" source="qD41CssBn5ZO2IdtqPFg-7" target="qD41CssBn5ZO2IdtqPFg-16">
          <mxGeometry relative="1" as="geometry">
            <mxPoint x="373" y="2155" as="targetPoint" />
            <Array as="points">
              <mxPoint x="370" y="2220" />
              <mxPoint x="710" y="2220" />
              <mxPoint x="740" y="2240" />
            </Array>
          </mxGeometry>
        </mxCell>
        <mxCell id="qD41CssBn5ZO2IdtqPFg-7" value="min = number_guess +1" style="rounded=0;whiteSpace=wrap;html=1;" vertex="1" parent="1">
          <mxGeometry x="286" y="1960" width="174" height="50" as="geometry" />
        </mxCell>
        <mxCell id="qD41CssBn5ZO2IdtqPFg-42" value="" style="edgeStyle=none;curved=1;rounded=0;orthogonalLoop=1;jettySize=auto;html=1;fontSize=12;startSize=8;endSize=8;" edge="1" parent="1" source="qD41CssBn5ZO2IdtqPFg-8" target="qD41CssBn5ZO2IdtqPFg-9">
          <mxGeometry relative="1" as="geometry" />
        </mxCell>
        <mxCell id="qD41CssBn5ZO2IdtqPFg-47" value="" style="edgeStyle=none;curved=0;rounded=0;orthogonalLoop=1;jettySize=auto;html=1;fontSize=12;startSize=8;endSize=8;entryX=0.5;entryY=0;entryDx=0;entryDy=0;" edge="1" parent="1" source="qD41CssBn5ZO2IdtqPFg-8" target="qD41CssBn5ZO2IdtqPFg-13">
          <mxGeometry relative="1" as="geometry">
            <mxPoint x="1112.75" y="1530" as="targetPoint" />
            <Array as="points">
              <mxPoint x="1186" y="1530" />
            </Array>
          </mxGeometry>
        </mxCell>
        <mxCell id="qD41CssBn5ZO2IdtqPFg-8" value="number_guess &amp;gt; random_number" style="rhombus;whiteSpace=wrap;html=1;" vertex="1" parent="1">
          <mxGeometry x="672.5" y="1440" width="213.5" height="180" as="geometry" />
        </mxCell>
        <mxCell id="qD41CssBn5ZO2IdtqPFg-43" value="" style="edgeStyle=none;curved=1;rounded=0;orthogonalLoop=1;jettySize=auto;html=1;fontSize=12;startSize=8;endSize=8;" edge="1" parent="1" source="qD41CssBn5ZO2IdtqPFg-9" target="qD41CssBn5ZO2IdtqPFg-10">
          <mxGeometry relative="1" as="geometry" />
        </mxCell>
        <mxCell id="qD41CssBn5ZO2IdtqPFg-9" value="Score -10" style="rounded=0;whiteSpace=wrap;html=1;" vertex="1" parent="1">
          <mxGeometry x="719.25" y="1660" width="120" height="60" as="geometry" />
        </mxCell>
        <mxCell id="qD41CssBn5ZO2IdtqPFg-44" value="" style="edgeStyle=none;curved=1;rounded=0;orthogonalLoop=1;jettySize=auto;html=1;fontSize=12;startSize=8;endSize=8;" edge="1" parent="1" source="qD41CssBn5ZO2IdtqPFg-10" target="qD41CssBn5ZO2IdtqPFg-11">
          <mxGeometry relative="1" as="geometry" />
        </mxCell>
        <mxCell id="qD41CssBn5ZO2IdtqPFg-10" value="&lt;div&gt;Show&lt;/div&gt;Sorry, the winning number is LOWER than&lt;div&gt;&amp;nbsp;&quot;(number_guess)&quot; ,&quot;(Score&amp;nbsp;)&quot;&lt;/div&gt;" style="shape=parallelogram;perimeter=parallelogramPerimeter;whiteSpace=wrap;html=1;fixedSize=1;" vertex="1" parent="1">
          <mxGeometry x="643.25" y="1754" width="272" height="70" as="geometry" />
        </mxCell>
        <mxCell id="qD41CssBn5ZO2IdtqPFg-45" value="" style="edgeStyle=none;curved=1;rounded=0;orthogonalLoop=1;jettySize=auto;html=1;fontSize=12;startSize=8;endSize=8;" edge="1" parent="1" source="qD41CssBn5ZO2IdtqPFg-11" target="qD41CssBn5ZO2IdtqPFg-12">
          <mxGeometry relative="1" as="geometry" />
        </mxCell>
        <mxCell id="qD41CssBn5ZO2IdtqPFg-93" value="" style="edgeStyle=none;curved=0;rounded=0;orthogonalLoop=1;jettySize=auto;html=1;fontSize=12;startSize=8;endSize=8;entryX=1;entryY=0;entryDx=0;entryDy=0;" edge="1" parent="1" source="qD41CssBn5ZO2IdtqPFg-11" target="qD41CssBn5ZO2IdtqPFg-16">
          <mxGeometry relative="1" as="geometry">
            <mxPoint x="1112.75" y="1960" as="targetPoint" />
            <Array as="points">
              <mxPoint x="970" y="1960" />
              <mxPoint x="970" y="2210" />
              <mxPoint x="860" y="2210" />
              <mxPoint x="820" y="2190" />
            </Array>
          </mxGeometry>
        </mxCell>
        <mxCell id="qD41CssBn5ZO2IdtqPFg-11" value="number_guess =&amp;lt; min" style="rhombus;whiteSpace=wrap;html=1;" vertex="1" parent="1">
          <mxGeometry x="672.5" y="1870" width="213.5" height="180" as="geometry" />
        </mxCell>
        <mxCell id="qD41CssBn5ZO2IdtqPFg-58" value="" style="edgeStyle=none;curved=1;rounded=0;orthogonalLoop=1;jettySize=auto;html=1;fontSize=12;startSize=8;endSize=8;" edge="1" parent="1" source="qD41CssBn5ZO2IdtqPFg-12" target="qD41CssBn5ZO2IdtqPFg-16">
          <mxGeometry relative="1" as="geometry" />
        </mxCell>
        <mxCell id="qD41CssBn5ZO2IdtqPFg-12" value="max = number_guess -1" style="rounded=0;whiteSpace=wrap;html=1;" vertex="1" parent="1">
          <mxGeometry x="692.25" y="2090" width="174" height="50" as="geometry" />
        </mxCell>
        <mxCell id="qD41CssBn5ZO2IdtqPFg-48" value="" style="edgeStyle=none;curved=1;rounded=0;orthogonalLoop=1;jettySize=auto;html=1;fontSize=12;startSize=8;endSize=8;" edge="1" parent="1" source="qD41CssBn5ZO2IdtqPFg-13" target="qD41CssBn5ZO2IdtqPFg-14">
          <mxGeometry relative="1" as="geometry" />
        </mxCell>
        <mxCell id="qD41CssBn5ZO2IdtqPFg-13" value="&lt;div&gt;Show&lt;/div&gt;Score this game &quot;&lt;span style=&quot;background-color: transparent; color: light-dark(rgb(0, 0, 0), rgb(255, 255, 255));&quot;&gt;(Score&amp;nbsp;)&quot;&lt;/span&gt;" style="shape=parallelogram;perimeter=parallelogramPerimeter;whiteSpace=wrap;html=1;fixedSize=1;" vertex="1" parent="1">
          <mxGeometry x="1050" y="1580" width="272" height="70" as="geometry" />
        </mxCell>
        <mxCell id="qD41CssBn5ZO2IdtqPFg-57" value="" style="edgeStyle=none;curved=0;rounded=0;orthogonalLoop=1;jettySize=auto;html=1;fontSize=12;startSize=8;endSize=8;entryX=1;entryY=1;entryDx=0;entryDy=0;" edge="1" parent="1" source="qD41CssBn5ZO2IdtqPFg-14" target="qD41CssBn5ZO2IdtqPFg-16">
          <mxGeometry relative="1" as="geometry">
            <mxPoint x="1186" y="1925" as="targetPoint" />
            <Array as="points">
              <mxPoint x="1186" y="2220" />
              <mxPoint x="860" y="2220" />
              <mxPoint x="820" y="2240" />
            </Array>
          </mxGeometry>
        </mxCell>
        <mxCell id="qD41CssBn5ZO2IdtqPFg-14" value="&lt;div&gt;Show&lt;/div&gt;That is correct! The winning number is&lt;div&gt;&amp;nbsp;&quot;&lt;span style=&quot;background-color: transparent; color: light-dark(rgb(0, 0, 0), rgb(255, 255, 255));&quot;&gt;(random_number)&quot;&lt;/span&gt;&lt;/div&gt;" style="shape=parallelogram;perimeter=parallelogramPerimeter;whiteSpace=wrap;html=1;fixedSize=1;" vertex="1" parent="1">
          <mxGeometry x="1050" y="1700" width="272" height="70" as="geometry" />
        </mxCell>
        <mxCell id="qD41CssBn5ZO2IdtqPFg-30" value="" style="edgeStyle=none;curved=1;rounded=0;orthogonalLoop=1;jettySize=auto;html=1;fontSize=12;startSize=8;endSize=8;" edge="1" parent="1" source="qD41CssBn5ZO2IdtqPFg-15" target="QrV30BwfFD1UE00L9ssL-13">
          <mxGeometry relative="1" as="geometry" />
        </mxCell>
        <mxCell id="qD41CssBn5ZO2IdtqPFg-15" value="" style="ellipse;whiteSpace=wrap;html=1;aspect=fixed;" vertex="1" parent="1">
          <mxGeometry x="363.04" y="1060" width="20" height="20" as="geometry" />
        </mxCell>
        <mxCell id="qD41CssBn5ZO2IdtqPFg-60" value="" style="edgeStyle=none;curved=0;rounded=0;orthogonalLoop=1;jettySize=auto;html=1;fontSize=12;startSize=8;endSize=8;entryX=0.5;entryY=0;entryDx=0;entryDy=0;" edge="1" parent="1" source="qD41CssBn5ZO2IdtqPFg-16" target="QrV30BwfFD1UE00L9ssL-14">
          <mxGeometry relative="1" as="geometry">
            <mxPoint x="779.25" y="2360" as="targetPoint" />
            <Array as="points">
              <mxPoint x="779" y="2320" />
              <mxPoint x="368" y="2320" />
            </Array>
          </mxGeometry>
        </mxCell>
        <mxCell id="qD41CssBn5ZO2IdtqPFg-16" value="" style="ellipse;whiteSpace=wrap;html=1;aspect=fixed;" vertex="1" parent="1">
          <mxGeometry x="769.25" y="2210" width="20" height="20" as="geometry" />
        </mxCell>
        <mxCell id="qD41CssBn5ZO2IdtqPFg-20" value="" style="edgeStyle=orthogonalEdgeStyle;rounded=0;orthogonalLoop=1;jettySize=auto;html=1;exitX=0;exitY=0.5;exitDx=0;exitDy=0;entryX=0;entryY=0.5;entryDx=0;entryDy=0;" edge="1" parent="1" source="6xoY5r_IMkIgJnPlj40s-20" target="lcvjllNkN0c5qHok56tw-1">
          <mxGeometry relative="1" as="geometry">
            <mxPoint x="340" y="230" as="targetPoint" />
            <Array as="points">
              <mxPoint x="60" y="2730" />
              <mxPoint x="60" y="230" />
            </Array>
            <mxPoint x="330" y="3160" as="sourcePoint" />
          </mxGeometry>
        </mxCell>
        <mxCell id="qD41CssBn5ZO2IdtqPFg-69" value="" style="edgeStyle=none;curved=0;rounded=0;orthogonalLoop=1;jettySize=auto;html=1;fontSize=12;startSize=8;endSize=8;entryX=1;entryY=0.5;entryDx=0;entryDy=0;" edge="1" parent="1" source="qD41CssBn5ZO2IdtqPFg-63" target="qD41CssBn5ZO2IdtqPFg-70">
          <mxGeometry relative="1" as="geometry">
            <mxPoint x="880" y="2500" as="targetPoint" />
            <Array as="points">
              <mxPoint x="850" y="1220" />
              <mxPoint x="1380" y="1220" />
              <mxPoint x="1400" y="2650" />
            </Array>
          </mxGeometry>
        </mxCell>
        <mxCell id="qD41CssBn5ZO2IdtqPFg-63" value="" style="ellipse;whiteSpace=wrap;html=1;aspect=fixed;" vertex="1" parent="1">
          <mxGeometry x="840" y="990" width="20" height="20" as="geometry" />
        </mxCell>
        <mxCell id="qD41CssBn5ZO2IdtqPFg-72" value="" style="edgeStyle=none;curved=1;rounded=0;orthogonalLoop=1;jettySize=auto;html=1;fontSize=12;startSize=8;endSize=8;" edge="1" parent="1" source="qD41CssBn5ZO2IdtqPFg-70" target="6xoY5r_IMkIgJnPlj40s-20">
          <mxGeometry relative="1" as="geometry" />
        </mxCell>
        <mxCell id="qD41CssBn5ZO2IdtqPFg-70" value="" style="ellipse;whiteSpace=wrap;html=1;aspect=fixed;" vertex="1" parent="1">
          <mxGeometry x="359.54" y="2640" width="20" height="20" as="geometry" />
        </mxCell>
        <mxCell id="qD41CssBn5ZO2IdtqPFg-75" value="False" style="text;html=1;align=center;verticalAlign=middle;resizable=0;points=[];autosize=1;strokeColor=none;fillColor=none;fontSize=16;" vertex="1" parent="1">
          <mxGeometry x="434" y="511" width="60" height="30" as="geometry" />
        </mxCell>
        <mxCell id="qD41CssBn5ZO2IdtqPFg-79" value="True" style="text;html=1;align=center;verticalAlign=middle;resizable=0;points=[];autosize=1;strokeColor=none;fillColor=none;fontSize=16;" vertex="1" parent="1">
          <mxGeometry x="384" y="581" width="60" height="30" as="geometry" />
        </mxCell>
        <mxCell id="qD41CssBn5ZO2IdtqPFg-80" value="False" style="text;html=1;align=center;verticalAlign=middle;resizable=0;points=[];autosize=1;strokeColor=none;fillColor=none;fontSize=16;" vertex="1" parent="1">
          <mxGeometry x="749.25" y="620" width="60" height="30" as="geometry" />
        </mxCell>
        <mxCell id="qD41CssBn5ZO2IdtqPFg-81" value="True" style="text;html=1;align=center;verticalAlign=middle;resizable=0;points=[];autosize=1;strokeColor=none;fillColor=none;fontSize=16;" vertex="1" parent="1">
          <mxGeometry x="886" y="620" width="60" height="30" as="geometry" />
        </mxCell>
        <mxCell id="qD41CssBn5ZO2IdtqPFg-82" value="True" style="text;html=1;align=center;verticalAlign=middle;resizable=0;points=[];autosize=1;strokeColor=none;fillColor=none;fontSize=16;" vertex="1" parent="1">
          <mxGeometry x="384" y="1490" width="60" height="30" as="geometry" />
        </mxCell>
        <mxCell id="qD41CssBn5ZO2IdtqPFg-83" value="True" style="text;html=1;align=center;verticalAlign=middle;resizable=0;points=[];autosize=1;strokeColor=none;fillColor=none;fontSize=16;" vertex="1" parent="1">
          <mxGeometry x="780" y="1610" width="60" height="30" as="geometry" />
        </mxCell>
        <mxCell id="qD41CssBn5ZO2IdtqPFg-84" value="False" style="text;html=1;align=center;verticalAlign=middle;resizable=0;points=[];autosize=1;strokeColor=none;fillColor=none;fontSize=16;" vertex="1" parent="1">
          <mxGeometry x="469.54" y="1380" width="60" height="30" as="geometry" />
        </mxCell>
        <mxCell id="qD41CssBn5ZO2IdtqPFg-85" value="False" style="text;html=1;align=center;verticalAlign=middle;resizable=0;points=[];autosize=1;strokeColor=none;fillColor=none;fontSize=16;" vertex="1" parent="1">
          <mxGeometry x="880" y="1500" width="60" height="30" as="geometry" />
        </mxCell>
        <mxCell id="qD41CssBn5ZO2IdtqPFg-86" value="False" style="text;html=1;align=center;verticalAlign=middle;resizable=0;points=[];autosize=1;strokeColor=none;fillColor=none;fontSize=16;" vertex="1" parent="1">
          <mxGeometry x="373" y="2760" width="60" height="30" as="geometry" />
        </mxCell>
        <mxCell id="qD41CssBn5ZO2IdtqPFg-87" value="False" style="text;html=1;align=center;verticalAlign=middle;resizable=0;points=[];autosize=1;strokeColor=none;fillColor=none;fontSize=16;" vertex="1" parent="1">
          <mxGeometry x="379.54" y="2600" width="60" height="30" as="geometry" />
        </mxCell>
        <mxCell id="qD41CssBn5ZO2IdtqPFg-88" value="True" style="text;html=1;align=center;verticalAlign=middle;resizable=0;points=[];autosize=1;strokeColor=none;fillColor=none;fontSize=16;" vertex="1" parent="1">
          <mxGeometry x="206.25" y="2500" width="60" height="30" as="geometry" />
        </mxCell>
        <mxCell id="qD41CssBn5ZO2IdtqPFg-89" value="True" style="text;html=1;align=center;verticalAlign=middle;resizable=0;points=[];autosize=1;strokeColor=none;fillColor=none;fontSize=16;" vertex="1" parent="1">
          <mxGeometry x="286" y="2700" width="60" height="30" as="geometry" />
        </mxCell>
        <mxCell id="qD41CssBn5ZO2IdtqPFg-94" value="True" style="text;html=1;align=center;verticalAlign=middle;resizable=0;points=[];autosize=1;strokeColor=none;fillColor=none;fontSize=16;" vertex="1" parent="1">
          <mxGeometry x="780" y="2040" width="60" height="30" as="geometry" />
        </mxCell>
        <mxCell id="qD41CssBn5ZO2IdtqPFg-95" value="True" style="text;html=1;align=center;verticalAlign=middle;resizable=0;points=[];autosize=1;strokeColor=none;fillColor=none;fontSize=16;" vertex="1" parent="1">
          <mxGeometry x="374" y="1910" width="60" height="30" as="geometry" />
        </mxCell>
        <mxCell id="qD41CssBn5ZO2IdtqPFg-96" value="False" style="text;html=1;align=center;verticalAlign=middle;resizable=0;points=[];autosize=1;strokeColor=none;fillColor=none;fontSize=16;" vertex="1" parent="1">
          <mxGeometry x="469.54" y="1800" width="60" height="30" as="geometry" />
        </mxCell>
        <mxCell id="qD41CssBn5ZO2IdtqPFg-97" value="False" style="text;html=1;align=center;verticalAlign=middle;resizable=0;points=[];autosize=1;strokeColor=none;fillColor=none;fontSize=16;" vertex="1" parent="1">
          <mxGeometry x="880" y="1930" width="60" height="30" as="geometry" />
        </mxCell>
      </root>
    </mxGraphModel>
  </diagram>
</mxfile>
